<?xml version="1.0" encoding="utf-8"?>
<!-- Generator: Adobe Illustrator 16.0.0, SVG Export Plug-In . SVG Version: 6.00 Build 0)  -->
<!DOCTYPE svg PUBLIC "-//W3C//DTD SVG 1.1//EN" "http://www.w3.org/Graphics/SVG/1.1/DTD/svg11.dtd">
<svg version="1.1" id="Layer_1" xmlns="http://www.w3.org/2000/svg" xmlns:xlink="http://www.w3.org/1999/xlink" x="0px" y="0px"
	 width="360px" height="216px" viewBox="0 0 360 216" enable-background="new 0 0 360 216" xml:space="preserve">
<path fill="#FFF9FA" d="M36,129.315h5.078c1.863-0.033,3.921,0.454,3.921,2.721c0,0.975-0.579,1.765-1.432,2.186
	c1.157,0.337,1.871,1.342,1.871,2.573c0,2.582-1.903,3.376-4.225,3.376H36V129.315z M38.825,133.584h2.189
	c0.487,0,1.155-0.254,1.155-1.035c0-0.789-0.56-1.048-1.155-1.048h-2.189V133.584z M38.825,137.905h2.266
	c0.896,0,1.52-0.324,1.52-1.221c0-0.955-0.669-1.271-1.52-1.271h-2.266V137.905z"/>
<path fill="#FFF9FA" d="M48.098,134.712c0.048-1.038,0.536-1.701,1.232-2.113c0.7-0.396,1.615-0.548,2.51-0.548
	c1.871,0,3.678,0.407,3.678,2.644v3.454c0,0.666,0,1.395,0.304,2.022h-2.597c-0.098-0.246-0.122-0.484-0.159-0.748
	c-0.665,0.698-1.652,0.977-2.598,0.977c-1.503,0-2.689-0.766-2.689-2.392c0-2.567,2.797-2.369,4.591-2.73
	c0.443-0.099,0.685-0.249,0.685-0.734c0-0.59-0.716-0.823-1.247-0.823c-0.715,0-1.17,0.326-1.289,0.992H48.098z M51.446,138.8
	c1.229,0,1.638-0.701,1.58-2.327c-0.367,0.231-1.035,0.276-1.6,0.428c-0.574,0.136-1.061,0.376-1.061,1.005
	C50.365,138.543,50.863,138.8,51.446,138.8"/>
<path fill="#FFF9FA" d="M58.56,132.277h2.512v1.078h0.029c0.471-0.808,1.538-1.305,2.481-1.305c2.627,0,2.84,1.912,2.84,3.056v5.064
	h-2.584v-3.818c0-1.075,0.12-2.176-1.291-2.176c-0.975,0-1.398,0.824-1.398,1.688v4.306H58.56V132.277z"/>
<path fill="#FFF9FA" d="M77.111,139.209c0,1.294-0.241,3.726-3.937,3.726c-1.839,0-3.575-0.412-3.874-2.524h2.582
	c0.06,0.354,0.198,0.565,0.441,0.686c0.23,0.121,0.545,0.171,0.943,0.171c1.233,0,1.353-0.867,1.353-1.844v-0.744h-0.031
	c-0.469,0.729-1.261,1.153-2.098,1.153c-2.387,0-3.462-1.701-3.462-3.922c0-2.096,1.232-3.859,3.462-3.859
	c0.943,0,1.662,0.407,2.114,1.217h0.032v-0.99h2.475V139.209z M73.118,134.025c-1.146,0-1.509,1.003-1.509,1.978
	c0,0.922,0.428,1.852,1.488,1.852c1.096,0,1.57-0.844,1.57-1.839C74.667,135.016,74.267,134.025,73.118,134.025"/>
<rect x="80.202" y="129.315" fill="#FFF9FA" width="2.585" height="10.854"/>
<path fill="#FFF9FA" d="M85.848,134.712c0.051-1.038,0.537-1.701,1.23-2.113c0.7-0.396,1.614-0.548,2.51-0.548
	c1.873,0,3.681,0.407,3.681,2.644v3.454c0,0.666,0,1.395,0.302,2.022h-2.596c-0.093-0.246-0.122-0.484-0.156-0.748
	c-0.668,0.698-1.652,0.977-2.602,0.977c-1.502,0-2.688-0.766-2.688-2.392c0-2.567,2.798-2.369,4.59-2.73
	c0.444-0.099,0.686-0.249,0.686-0.734c0-0.59-0.713-0.823-1.248-0.823c-0.714,0-1.171,0.326-1.288,0.992H85.848z M89.196,138.8
	c1.229,0,1.642-0.701,1.581-2.327c-0.368,0.231-1.038,0.276-1.601,0.428c-0.574,0.136-1.06,0.376-1.06,1.005
	C88.116,138.543,88.613,138.8,89.196,138.8"/>
<path fill="#FFF9FA" d="M104.127,140.171h-2.466v-0.914h-0.031c-0.5,0.743-1.262,1.143-2.169,1.143c-2.484,0-3.53-2.128-3.53-4.349
	c0-2.055,1.094-4,3.329-4c0.978,0,1.718,0.359,2.251,1.075h0.03v-3.811h2.586V140.171z M98.516,136.137
	c0,1.082,0.395,2.286,1.58,2.286c1.266,0,1.535-1.204,1.535-2.211c0-1.136-0.409-2.187-1.535-2.187
	C98.911,134.025,98.516,135.139,98.516,136.137"/>
<path fill="#FFF9FA" d="M109.436,136.851c0.045,1.083,0.667,1.798,1.763,1.798c0.624,0,1.229-0.289,1.474-0.864h2.418
	c-0.47,1.824-2.159,2.615-3.922,2.615c-2.57,0-4.319-1.555-4.319-4.197c0-2.417,1.932-4.151,4.257-4.151
	c2.826,0,4.238,2.126,4.119,4.8H109.436z M112.645,135.413c-0.046-0.885-0.674-1.613-1.538-1.613c-0.912,0-1.523,0.653-1.671,1.613
	H112.645z"/>
<path fill="#FFF9FA" d="M119.864,137.573c0,0.387,0.17,0.681,0.429,0.877c0.244,0.184,0.592,0.271,0.957,0.271
	c0.504,0,1.219-0.212,1.219-0.837c0-0.608-0.807-0.729-1.264-0.829c-1.626-0.417-3.664-0.457-3.664-2.59
	c0-1.902,2.052-2.415,3.603-2.415c1.736,0,3.543,0.498,3.631,2.553h-2.385c0-0.334-0.12-0.548-0.333-0.684
	c-0.213-0.135-0.501-0.201-0.823-0.201c-0.423,0-1.109,0.051-1.109,0.594c0,0.749,1.732,0.884,2.917,1.141
	c1.599,0.321,2.007,1.472,2.007,2.128c0,2.113-2.007,2.818-3.789,2.818c-1.863,0-3.781-0.625-3.855-2.826H119.864z"/>
<path fill="#FFF9FA" d="M127.654,129.315h2.586v4.04h0.031c0.396-0.807,1.458-1.305,2.399-1.305c2.631,0,2.845,1.912,2.845,3.056
	v5.063h-2.587v-3.817c0-1.075,0.123-2.176-1.29-2.176c-0.971,0-1.398,0.824-1.398,1.688v4.305h-2.586V129.315z"/>
<path fill="#FFF9FA" d="M147.759,129.315h2.877l4.059,10.855h-2.951l-0.665-1.944h-3.792l-0.682,1.944h-2.902L147.759,129.315z
	 M147.941,136.126h2.463l-1.196-3.804h-0.033L147.941,136.126z"/>
<path fill="#FFF9FA" d="M158.751,137.573c0,0.387,0.173,0.681,0.429,0.877c0.248,0.184,0.596,0.271,0.961,0.271
	c0.498,0,1.214-0.212,1.214-0.837c0-0.608-0.803-0.729-1.258-0.829c-1.631-0.417-3.668-0.457-3.668-2.59
	c0-1.902,2.051-2.415,3.601-2.415c1.737,0,3.544,0.498,3.635,2.553h-2.385c0-0.334-0.127-0.548-0.336-0.684
	c-0.213-0.135-0.5-0.201-0.824-0.201c-0.423,0-1.105,0.051-1.105,0.594c0,0.749,1.729,0.884,2.917,1.141
	c1.596,0.321,2.006,1.472,2.006,2.128c0,2.113-2.006,2.818-3.789,2.818c-1.865,0-3.781-0.625-3.857-2.826H158.751z"/>
<path fill="#FFF9FA" d="M168.549,137.573c0,0.387,0.167,0.681,0.426,0.877c0.243,0.184,0.594,0.271,0.957,0.271
	c0.504,0,1.22-0.212,1.22-0.837c0-0.608-0.808-0.729-1.26-0.829c-1.631-0.417-3.668-0.457-3.668-2.59
	c0-1.902,2.051-2.415,3.603-2.415c1.732,0,3.541,0.498,3.632,2.553h-2.387c0-0.334-0.122-0.548-0.333-0.684
	c-0.213-0.135-0.501-0.201-0.824-0.201c-0.421,0-1.109,0.051-1.109,0.594c0,0.749,1.735,0.884,2.92,1.141
	c1.597,0.321,2.01,1.472,2.01,2.128c0,2.113-2.01,2.818-3.787,2.818c-1.87,0-3.786-0.625-3.86-2.826H168.549z"/>
<path fill="#FFF9FA" d="M180.109,132.051c2.444,0,4.165,1.807,4.165,4.181c0,2.369-1.721,4.169-4.165,4.169
	c-2.445,0-4.154-1.8-4.154-4.169C175.956,133.857,177.665,132.051,180.109,132.051 M180.109,138.423c1.199,0,1.58-1.191,1.58-2.191
	c0-1.002-0.381-2.205-1.58-2.205c-1.207,0-1.568,1.203-1.568,2.205C178.542,137.231,178.902,138.423,180.109,138.423"/>
<path fill="#FFF9FA" d="M192.105,135.166c-0.02-0.668-0.607-1.141-1.264-1.141c-1.441,0-1.673,1.236-1.673,2.327
	c0,1.018,0.447,2.07,1.537,2.07c0.902,0,1.353-0.518,1.473-1.354h2.513c-0.234,2.113-1.867,3.331-3.97,3.331
	c-2.377,0-4.133-1.628-4.133-4.047c0-2.51,1.601-4.302,4.133-4.302c1.96,0,3.706,1.035,3.899,3.115H192.105z"/>
<path fill="#FFF9FA" d="M199.997,131.287h-2.585v-1.972h2.585V131.287z M197.412,132.277h2.585v7.894h-2.585V132.277z"/>
<path fill="#FFF9FA" d="M203.064,134.712c0.048-1.038,0.53-1.701,1.234-2.113c0.695-0.396,1.61-0.548,2.509-0.548
	c1.865,0,3.679,0.407,3.679,2.644v3.454c0,0.666,0,1.395,0.297,2.022h-2.596c-0.096-0.246-0.123-0.484-0.153-0.748
	c-0.671,0.698-1.655,0.977-2.595,0.977c-1.513,0-2.696-0.766-2.696-2.392c0-2.567,2.796-2.369,4.593-2.73
	c0.444-0.099,0.68-0.249,0.68-0.734c0-0.59-0.708-0.823-1.245-0.823c-0.714,0-1.168,0.326-1.284,0.992H203.064z M206.411,138.8
	c1.231,0,1.639-0.701,1.58-2.327c-0.364,0.231-1.034,0.276-1.601,0.428c-0.577,0.136-1.058,0.376-1.058,1.005
	C205.333,138.543,205.836,138.8,206.411,138.8"/>
<path fill="#FFF9FA" d="M218.285,133.953h-1.601v3.583c0,0.625,0.364,0.758,0.93,0.758c0.211,0,0.44-0.022,0.671-0.022v1.899
	c-0.476,0.011-0.945,0.073-1.42,0.073c-2.198,0-2.761-0.636-2.761-2.781v-3.51h-1.31v-1.676h1.31v-2.382h2.58v2.382h1.601V133.953z"
	/>
<path fill="#FFF9FA" d="M223.458,131.287h-2.578v-1.972h2.578V131.287z M220.88,132.277h2.578v7.894h-2.578V132.277z"/>
<path fill="#FFF9FA" d="M230.402,132.051c2.446,0,4.165,1.807,4.165,4.181c0,2.369-1.719,4.169-4.165,4.169
	c-2.447,0-4.153-1.8-4.153-4.169C226.249,133.857,227.955,132.051,230.402,132.051 M230.402,138.423c1.195,0,1.58-1.191,1.58-2.191
	c0-1.002-0.385-2.205-1.58-2.205c-1.203,0-1.568,1.203-1.568,2.205C228.834,137.231,229.199,138.423,230.402,138.423"/>
<path fill="#FFF9FA" d="M237.256,132.277h2.508v1.078h0.035c0.47-0.808,1.532-1.305,2.475-1.305c2.63,0,2.847,1.912,2.847,3.056
	v5.064h-2.583v-3.818c0-1.075,0.12-2.176-1.297-2.176c-0.972,0-1.399,0.824-1.399,1.688v4.306h-2.585V132.277z"/>
<path fill="#FFF9FA" d="M258.089,132.051c2.441,0,4.163,1.807,4.163,4.181c0,2.369-1.722,4.169-4.163,4.169
	c-2.452,0-4.163-1.8-4.163-4.169C253.926,133.857,255.637,132.051,258.089,132.051 M258.089,138.423
	c1.198,0,1.575-1.191,1.575-2.191c0-1.002-0.377-2.205-1.575-2.205c-1.206,0-1.57,1.203-1.57,2.205
	C256.519,137.231,256.883,138.423,258.089,138.423"/>
<path fill="#FFF9FA" d="M265.503,133.953h-1.241v-1.676h1.241c0-2.264,0.789-2.962,2.997-2.962c0.407,0,0.834,0.027,1.246,0.045
	v1.821c-0.238-0.03-0.471-0.042-0.698-0.042c-0.596,0-0.96,0.072-0.96,0.786v0.352h1.553v1.676h-1.553v6.218h-2.585V133.953z"/>
<path fill="#FFF9FA" d="M38.83,151.703c0.062,1.276,0.853,1.688,2.05,1.688c0.854,0,1.734-0.306,1.734-1.109
	c0-0.955-1.55-1.141-3.113-1.578c-1.556-0.442-3.178-1.141-3.178-3.138c0-2.369,2.383-3.297,4.421-3.297
	c2.161,0,4.336,1.048,4.351,3.495h-2.827c0.042-0.985-0.885-1.307-1.75-1.307c-0.61,0-1.373,0.211-1.373,0.93
	c0,0.834,1.572,0.99,3.152,1.427c1.564,0.442,3.142,1.171,3.142,3.136c0,2.751-2.337,3.628-4.722,3.628
	c-2.495,0-4.703-1.091-4.717-3.874H38.83z"/>
<path fill="#FFF9FA" d="M50.023,147.231c2.444,0,4.167,1.813,4.167,4.181c0,2.374-1.723,4.165-4.167,4.165
	c-2.45,0-4.153-1.791-4.153-4.165C45.87,149.045,47.573,147.231,50.023,147.231 M50.023,153.603c1.2,0,1.578-1.187,1.578-2.19
	c0-0.998-0.378-2.201-1.578-2.201c-1.202,0-1.569,1.203-1.569,2.201C48.454,152.416,48.821,153.603,50.023,153.603"/>
<path fill="#FFF9FA" d="M55.699,149.136h-1.25v-1.674h1.25c0-2.266,0.787-2.964,2.993-2.964c0.41,0,0.838,0.027,1.248,0.045v1.826
	c-0.245-0.032-0.475-0.048-0.698-0.048c-0.596,0-0.962,0.075-0.962,0.789v0.352h1.552v1.674H58.28v6.221h-2.581V149.136z"/>
<path fill="#FFF9FA" d="M66.047,149.136h-1.591v3.59c0,0.615,0.357,0.756,0.923,0.756c0.213,0,0.443-0.03,0.668-0.03v1.905
	c-0.474,0.007-0.946,0.07-1.413,0.07c-2.205,0-2.768-0.639-2.768-2.779v-3.512H60.56v-1.674h1.307v-2.388h2.59v2.388h1.591V149.136z
	"/>
<polygon fill="#FFF9FA" points="76.914,155.356 74.297,155.356 73.05,150.11 73.021,150.11 71.79,155.356 69.172,155.356 
	66.709,147.461 69.328,147.461 70.652,152.57 70.681,152.57 71.804,147.461 74.268,147.461 75.423,152.558 75.456,152.558 
	76.745,147.461 79.379,147.461 "/>
<path fill="#FFF9FA" d="M79.724,149.895c0.048-1.03,0.536-1.704,1.235-2.116c0.694-0.392,1.609-0.547,2.507-0.547
	c1.871,0,3.681,0.411,3.681,2.648v3.448c0,0.671,0,1.399,0.301,2.028h-2.6c-0.091-0.246-0.119-0.49-0.154-0.747
	c-0.668,0.696-1.654,0.968-2.597,0.968c-1.507,0-2.692-0.756-2.692-2.382c0-2.57,2.801-2.372,4.59-2.732
	c0.443-0.099,0.686-0.249,0.686-0.734c0-0.593-0.713-0.824-1.249-0.824c-0.711,0-1.171,0.321-1.287,0.99H79.724z M83.069,153.984
	c1.235,0,1.645-0.701,1.583-2.326c-0.362,0.226-1.035,0.276-1.596,0.427c-0.579,0.136-1.062,0.379-1.062,1
	C81.994,153.729,82.496,153.984,83.069,153.984"/>
<path fill="#FFF9FA" d="M88.537,147.462h2.508v1.382h0.03c0.379-1,1.259-1.535,2.369-1.535c0.198,0,0.412,0.018,0.61,0.063v2.357
	c-0.336-0.091-0.64-0.15-0.987-0.15c-1.277,0-1.947,0.884-1.947,1.868v3.91h-2.583V147.462z"/>
<path fill="#FFF9FA" d="M97.095,152.04c0.049,1.077,0.671,1.791,1.765,1.791c0.626,0,1.228-0.286,1.473-0.864h2.416
	c-0.467,1.821-2.157,2.61-3.918,2.61c-2.574,0-4.321-1.547-4.321-4.19c0-2.422,1.932-4.155,4.257-4.155
	c2.83,0,4.241,2.13,4.124,4.809H97.095z M100.305,150.593c-0.043-0.88-0.669-1.613-1.538-1.613c-0.909,0-1.52,0.658-1.672,1.613
	H100.305z"/>
<path fill="#FFF9FA" d="M113.722,154.437c-0.939,0.773-1.894,1.141-3.112,1.141c-1.931,0-3.619-1.289-3.619-3.312
	c0-1.553,1.154-2.553,2.464-3.165c-0.536-0.588-0.961-1.257-0.961-2.081c0-1.688,1.536-2.751,3.102-2.751
	c1.628,0,3.072,1.081,3.072,2.814c0,1.264-0.776,2.143-1.856,2.69l1.125,1.352c0.214-0.321,0.351-0.688,0.396-1.063h2.217
	c-0.088,0.973-0.528,1.93-1.197,2.643l2.285,2.651h-3.151L113.722,154.437z M110.743,150.804c-0.526,0.246-1.259,0.776-1.259,1.432
	c0,0.759,0.733,1.246,1.429,1.246c0.487,0,1.035-0.396,1.447-0.776L110.743,150.804z M112.555,146.93
	c0-0.518-0.383-0.834-0.911-0.834c-0.472,0-0.851,0.352-0.851,0.804c0,0.593,0.422,0.944,0.76,1.369
	C112.082,147.944,112.555,147.583,112.555,146.93"/>
<rect x="121.533" y="144.498" fill="#FFF9FA" width="2.833" height="10.858"/>
<path fill="#FFF9FA" d="M125.818,147.462h2.508v1.08h0.034c0.473-0.81,1.535-1.311,2.479-1.311c2.629,0,2.842,1.919,2.842,3.06
	v5.065h-2.589v-3.819c0-1.075,0.122-2.176-1.289-2.176c-0.97,0-1.4,0.824-1.4,1.688v4.307h-2.585V147.462z"/>
<path fill="#FFF9FA" d="M135.555,149.136h-1.246v-1.674h1.246c0-2.266,0.793-2.964,2.989-2.964c0.415,0,0.84,0.027,1.252,0.045
	v1.826c-0.245-0.032-0.47-0.048-0.697-0.048c-0.597,0-0.961,0.075-0.961,0.789v0.352h1.55v1.674h-1.55v6.221h-2.583V149.136z"/>
<path fill="#FFF9FA" d="M143.983,147.231c2.447,0,4.167,1.813,4.167,4.181c0,2.374-1.72,4.165-4.167,4.165
	c-2.445,0-4.147-1.791-4.147-4.165C139.836,149.045,141.539,147.231,143.983,147.231 M143.983,153.603c1.202,0,1.58-1.187,1.58-2.19
	c0-0.998-0.378-2.201-1.58-2.201s-1.568,1.203-1.568,2.201C142.416,152.416,142.781,153.603,143.983,153.603"/>
<path fill="#FFF9FA" d="M149.189,147.462h2.507v1.382h0.029c0.383-1,1.264-1.535,2.373-1.535c0.196,0,0.412,0.018,0.603,0.063v2.357
	c-0.332-0.091-0.634-0.15-0.981-0.15c-1.279,0-1.944,0.884-1.944,1.868v3.91h-2.587V147.462z"/>
<path fill="#FFF9FA" d="M155.166,147.462h2.516v1.08h0.028c0.474-0.791,1.307-1.311,2.266-1.311c0.988,0,1.87,0.321,2.293,1.281
	c0.626-0.84,1.398-1.281,2.464-1.281c2.508,0,2.781,1.904,2.781,3.411v4.714h-2.582v-4.644c0-0.849-0.412-1.352-1.083-1.352
	c-1.106,0-1.213,0.852-1.213,2.128v3.867h-2.584v-4.492c0-0.925-0.271-1.503-0.975-1.503c-0.928,0-1.327,0.533-1.327,2.146v3.85
	h-2.584V147.462z"/>
<path fill="#FFF9FA" d="M168.732,149.895c0.047-1.03,0.531-1.704,1.234-2.116c0.699-0.392,1.609-0.547,2.506-0.547
	c1.871,0,3.681,0.411,3.681,2.648v3.448c0,0.671,0,1.399,0.302,2.028h-2.601c-0.092-0.246-0.122-0.49-0.15-0.747
	c-0.669,0.696-1.654,0.968-2.601,0.968c-1.508,0-2.686-0.756-2.686-2.382c0-2.57,2.796-2.372,4.587-2.732
	c0.441-0.099,0.682-0.249,0.682-0.734c0-0.593-0.714-0.824-1.245-0.824c-0.714,0-1.171,0.321-1.29,0.99H168.732z M172.074,153.984
	c1.234,0,1.646-0.701,1.584-2.326c-0.361,0.226-1.034,0.276-1.598,0.427c-0.576,0.136-1.062,0.379-1.062,1
	C170.998,153.729,171.498,153.984,172.074,153.984"/>
<path fill="#FFF9FA" d="M182.207,149.136h-1.597v3.59c0,0.615,0.363,0.756,0.929,0.756c0.213,0,0.438-0.03,0.668-0.03v1.905
	c-0.474,0.007-0.946,0.07-1.417,0.07c-2.201,0-2.766-0.639-2.766-2.779v-3.512h-1.308v-1.674h1.308v-2.388h2.586v2.388h1.597
	V149.136z"/>
<path fill="#FFF9FA" d="M185.634,146.472h-2.583v-1.974h2.583V146.472z M183.051,147.462h2.583v7.896h-2.583V147.462z"/>
<path fill="#FFF9FA" d="M190.832,147.231c2.447,0,4.166,1.813,4.166,4.181c0,2.374-1.719,4.165-4.166,4.165
	c-2.452,0-4.152-1.791-4.152-4.165C186.68,149.045,188.38,147.231,190.832,147.231 M190.832,153.603c1.196,0,1.58-1.187,1.58-2.19
	c0-0.998-0.384-2.201-1.58-2.201c-1.203,0-1.567,1.203-1.567,2.201C189.265,152.416,189.629,153.603,190.832,153.603"/>
<path fill="#FFF9FA" d="M195.942,147.462h2.51v1.08h0.027c0.47-0.81,1.543-1.311,2.487-1.311c2.618,0,2.844,1.919,2.844,3.06v5.065
	h-2.59v-3.819c0-1.075,0.123-2.176-1.294-2.176c-0.978,0-1.399,0.824-1.399,1.688v4.307h-2.585V147.462z"/>
<path fill="#FFF9FA" d="M210.799,151.703c0.067,1.276,0.859,1.688,2.061,1.688c0.852,0,1.729-0.306,1.729-1.109
	c0-0.955-1.546-1.141-3.118-1.578c-1.545-0.442-3.176-1.141-3.176-3.138c0-2.369,2.387-3.297,4.427-3.297
	c2.161,0,4.329,1.048,4.349,3.495h-2.831c0.048-0.985-0.882-1.307-1.748-1.307c-0.608,0-1.37,0.211-1.37,0.93
	c0,0.834,1.57,0.99,3.15,1.427c1.563,0.442,3.153,1.171,3.153,3.136c0,2.751-2.347,3.628-4.733,3.628
	c-2.495,0-4.698-1.091-4.711-3.874H210.799z"/>
<path fill="#FFF9FA" d="M220.432,152.04c0.047,1.077,0.67,1.791,1.766,1.791c0.623,0,1.227-0.286,1.478-0.864h2.417
	c-0.475,1.821-2.163,2.61-3.927,2.61c-2.573,0-4.319-1.547-4.319-4.19c0-2.422,1.939-4.155,4.261-4.155
	c2.827,0,4.244,2.13,4.116,4.809H220.432z M223.64,150.593c-0.043-0.88-0.666-1.613-1.533-1.613c-0.914,0-1.522,0.658-1.675,1.613
	H223.64z"/>
<path fill="#FFF9FA" d="M227.199,147.462h2.508v1.382h0.03c0.382-1,1.264-1.535,2.369-1.535c0.198,0,0.417,0.018,0.618,0.063v2.357
	c-0.339-0.091-0.646-0.15-0.995-0.15c-1.278,0-1.944,0.884-1.944,1.868v3.91h-2.586V147.462z"/>
<polygon fill="#FFF9FA" points="238.498,155.356 235.517,155.356 232.891,147.461 235.579,147.461 237.019,152.678 237.059,152.678 
	238.503,147.461 241.144,147.461 "/>
<path fill="#FFF9FA" d="M244.236,146.472h-2.585v-1.974h2.585V146.472z M241.651,147.462h2.585v7.896h-2.585V147.462z"/>
<path fill="#FFF9FA" d="M250.799,150.352c-0.015-0.674-0.604-1.141-1.264-1.141c-1.447,0-1.674,1.226-1.674,2.327
	c0,1.02,0.448,2.064,1.538,2.064c0.897,0,1.352-0.518,1.475-1.352h2.51c-0.233,2.112-1.866,3.326-3.964,3.326
	c-2.382,0-4.138-1.622-4.138-4.039c0-2.514,1.6-4.307,4.138-4.307c1.959,0,3.705,1.037,3.894,3.12H250.799z"/>
<path fill="#FFF9FA" d="M256.475,152.04c0.048,1.077,0.671,1.791,1.766,1.791c0.623,0,1.222-0.286,1.476-0.864h2.414
	c-0.47,1.821-2.16,2.61-3.927,2.61c-2.567,0-4.316-1.547-4.316-4.19c0-2.422,1.937-4.155,4.259-4.155c2.826,0,4.243,2.13,4.12,4.809
	H256.475z M259.678,150.593c-0.037-0.88-0.66-1.613-1.532-1.613c-0.915,0-1.518,0.658-1.671,1.613H259.678z"/>
<path fill="#FFF9FA" d="M265.162,152.753c0,0.393,0.169,0.684,0.428,0.88c0.238,0.186,0.588,0.276,0.957,0.276
	c0.492,0,1.211-0.214,1.211-0.837c0-0.608-0.799-0.729-1.254-0.837c-1.633-0.412-3.666-0.457-3.666-2.585
	c0-1.899,2.051-2.419,3.599-2.419c1.743,0,3.538,0.501,3.64,2.558h-2.393c0-0.335-0.122-0.548-0.334-0.688
	c-0.215-0.136-0.502-0.196-0.818-0.196c-0.427,0-1.115,0.045-1.115,0.596c0,0.741,1.738,0.882,2.917,1.143
	c1.601,0.312,2.01,1.473,2.01,2.126c0,2.11-2.01,2.809-3.784,2.809c-1.871,0-3.785-0.62-3.858-2.824H265.162z"/>
<path fill="#FFF9FA" d="M36,61.533h23.621c10.812,0,21.839,2.571,21.839,15.348c0,4.849-2.447,9.619-7.327,11.169v0.433
	c6.066,2.141,9.914,6.538,9.914,13.146c0,11.387-10.657,15.286-20.429,15.286H36V61.533z M56.659,82.83
	c2.962,0,6.295-0.293,6.295-4.105c0-4.121-3.781-3.825-6.743-3.825h-1.406v7.93H56.659z M54.805,103.689h2.296
	c3.332,0,8.151-0.072,8.151-4.629c0-4.624-5.19-4.556-8.449-4.556h-1.998V103.689z"/>
<path fill="#FFF9FA" d="M107.083,116.914H85.61l19.4-55.381h22.43l19.92,55.381h-21.474l-1.855-6.909h-15.317L107.083,116.914z
	 M120.479,96.857l-2.376-9.769c-0.589-2.349-0.952-4.774-1.324-7.121h-0.742l-3.704,16.89H120.479z"/>
<path fill="#FFF9FA" d="M154.918,97.078l1.036,0.809c3.625,2.79,7.994,5.065,12.661,5.065c1.997,0,5.177-0.808,5.177-3.305
	c0-2.492-2.667-2.721-4.511-3.086l-4.077-0.732c-7.921-1.393-14.585-6.022-14.585-14.691c0-13.148,12.065-20.486,24.205-20.486
	c6.368,0,12.218,1.538,17.702,4.847l-5.484,14.172c-3.475-2.349-7.401-4.187-11.774-4.187c-1.773,0-4.364,0.666-4.364,2.941
	c0,2.055,2.523,2.352,4.074,2.713l4.592,1.033c8.59,1.908,14.801,6.461,14.801,15.862c0,13.221-12.133,19.761-24.202,19.761
	c-7.04,0-15.183-1.91-21.474-5.067L154.918,97.078z"/>
<rect x="200.828" y="61.533" fill="#FFF9FA" width="20.282" height="55.381"/>
<path fill="#FFF9FA" d="M233.841,97.078l1.042,0.809c3.628,2.79,7.99,5.065,12.665,5.065c1.992,0,5.173-0.808,5.173-3.305
	c0-2.492-2.658-2.721-4.512-3.086l-4.067-0.732c-7.935-1.393-14.592-6.022-14.592-14.691c0-13.148,12.069-20.486,24.209-20.486
	c6.366,0,12.218,1.538,17.692,4.847l-5.475,14.172c-3.487-2.349-7.404-4.187-11.769-4.187c-1.776,0-4.371,0.666-4.371,2.941
	c0,2.055,2.515,2.352,4.075,2.713l4.588,1.033c8.587,1.908,14.8,6.461,14.8,15.862c0,13.221-12.138,19.761-24.201,19.761
	c-7.035,0-15.183-1.91-21.472-5.067L233.841,97.078z"/>
<polygon fill="#6EC8BF" points="285.387,103.657 285.387,89.289 297.597,96.476 309.923,103.657 297.651,110.84 285.387,118.022 "/>
<polygon fill="#007F3E" points="285.387,74.79 285.387,60.423 297.597,67.609 309.923,74.79 297.651,81.977 285.387,89.158 "/>
<polygon fill="#ED1C24" points="299.723,89.057 299.723,74.69 311.763,81.87 324,89.057 311.866,96.241 299.723,103.426 "/>
<path fill="#FFF9FA" d="M317.104,60.423c0.989,0,1.923,0.178,2.8,0.536c0.879,0.358,1.657,0.878,2.342,1.562
	c0.664,0.671,1.177,1.447,1.536,2.328c0.361,0.881,0.541,1.807,0.541,2.778c0,0.984-0.177,1.906-0.531,2.765
	c-0.354,0.858-0.87,1.618-1.546,2.275c-0.708,0.69-1.506,1.222-2.395,1.595c-0.886,0.374-1.804,0.561-2.747,0.561
	c-0.951,0-1.858-0.182-2.719-0.546c-0.862-0.364-1.641-0.895-2.338-1.591c-0.688-0.684-1.214-1.46-1.578-2.328
	c-0.364-0.868-0.546-1.778-0.546-2.731c0-0.964,0.185-1.887,0.551-2.768c0.366-0.882,0.897-1.674,1.593-2.376
	c0.658-0.671,1.418-1.182,2.28-1.533C315.206,60.599,316.126,60.423,317.104,60.423 M322.847,67.623
	c0-0.767-0.144-1.497-0.431-2.192c-0.287-0.696-0.699-1.312-1.233-1.848c-0.556-0.555-1.176-0.975-1.863-1.258
	c-0.686-0.284-1.418-0.427-2.198-0.427c-0.784,0-1.518,0.139-2.2,0.417c-0.683,0.278-1.291,0.687-1.82,1.23
	c-0.548,0.555-0.97,1.183-1.262,1.886c-0.295,0.702-0.44,1.433-0.44,2.192c0,0.759,0.146,1.485,0.436,2.177
	c0.29,0.694,0.706,1.31,1.248,1.853c0.551,0.55,1.169,0.968,1.858,1.259c0.688,0.291,1.416,0.435,2.181,0.435
	c0.761,0,1.491-0.146,2.188-0.44c0.699-0.294,1.329-0.718,1.892-1.273c0.542-0.53,0.951-1.135,1.229-1.815
	C322.708,69.14,322.847,68.409,322.847,67.623 M318.392,66.267c-0.019-0.402-0.139-0.719-0.361-0.948
	c-0.223-0.23-0.52-0.345-0.889-0.345c-0.465,0-0.829,0.229-1.095,0.685c-0.264,0.456-0.395,1.1-0.395,1.93
	c0,0.837,0.129,1.465,0.39,1.883c0.262,0.418,0.654,0.628,1.177,0.628c0.381,0,0.673-0.117,0.876-0.35
	c0.206-0.234,0.316-0.574,0.336-1.021l2.376-0.009c-0.039,0.952-0.386,1.71-1.045,2.275c-0.656,0.565-1.523,0.848-2.601,0.848
	c-1.243,0-2.223-0.37-2.935-1.111c-0.711-0.741-1.065-1.763-1.065-3.066c0-1.278,0.354-2.31,1.061-3.1
	c0.709-0.789,1.632-1.183,2.767-1.183c1.123,0,2.012,0.254,2.666,0.762c0.654,0.508,1.006,1.215,1.057,2.122H318.392z"/>
<rect fill="none" width="360" height="216"/>
</svg>
